<?xml version="1.0" standalone="no"?>
<!DOCTYPE svg PUBLIC "-//W3C//DTD SVG 20010904//EN"
 "http://www.w3.org/TR/2001/REC-SVG-20010904/DTD/svg10.dtd">
<svg version="1.0" xmlns="http://www.w3.org/2000/svg"
 width="512.000000pt" height="512.000000pt" viewBox="0 0 512.000000 512.000000"
 preserveAspectRatio="xMidYMid meet">

<g transform="translate(0.000000,512.000000) scale(0.100000,-0.100000)"
fill="#000000" stroke="none">
<path d="M897 4788 c-10 -9 -20 -41 -27 -96 -13 -97 -17 -109 -36 -116 -19 -7
-44 6 -113 60 -31 24 -65 44 -76 44 -26 0 -205 -178 -205 -204 0 -11 19 -44
43 -75 56 -73 65 -91 60 -112 -6 -23 -21 -28 -118 -40 -54 -7 -84 -15 -92 -26
-18 -23 -18 -263 0 -286 8 -11 38 -19 92 -26 97 -12 112 -17 118 -40 5 -21 -4
-39 -61 -112 -23 -31 -42 -64 -42 -75 0 -26 179 -204 205 -204 11 0 53 24 92
54 49 37 78 53 92 49 25 -6 27 -14 41 -115 7 -55 17 -87 27 -95 23 -18 263
-18 286 0 10 8 20 40 27 95 6 46 13 89 16 97 12 31 45 23 118 -31 41 -30 83
-54 93 -54 25 0 203 180 203 205 0 11 -24 53 -54 92 -37 49 -53 78 -49 92 6
25 14 27 115 41 88 12 108 24 108 67 l0 23 160 0 160 0 0 80 0 80 -160 0 -160
0 0 23 c0 43 -20 55 -108 67 -101 14 -109 16 -115 41 -4 14 12 43 49 92 30 39
54 81 54 92 0 27 -178 205 -205 205 -11 0 -45 -20 -76 -44 -69 -54 -94 -67
-113 -60 -19 7 -23 19 -36 116 -7 55 -17 87 -27 96 -12 8 -57 12 -143 12 -86
0 -131 -4 -143 -12z m274 -503 c24 -17 57 -50 74 -74 28 -40 30 -49 30 -131 0
-82 -2 -91 -30 -131 -17 -24 -50 -57 -74 -74 -40 -28 -49 -30 -131 -30 -82 0
-91 2 -131 30 -72 50 -103 104 -107 185 -5 83 8 124 53 177 54 64 105 85 197
81 66 -3 82 -7 119 -33z"/>
<path d="M4000 4082 l0 -79 93 -5 c166 -9 300 -71 427 -198 84 -85 129 -154
168 -262 24 -67 27 -86 27 -218 0 -132 -3 -151 -27 -218 -39 -108 -84 -177
-168 -262 -85 -84 -154 -129 -262 -168 -72 -27 -77 -27 -365 -30 l-293 -3 0
-81 0 -80 283 5 c242 4 293 7 358 25 267 72 483 262 577 510 42 108 55 181 55
302 0 172 -42 314 -133 454 -146 224 -376 358 -652 381 l-88 7 0 -80z"/>
<path d="M978 2630 c-349 -41 -645 -315 -718 -665 -17 -77 -17 -253 0 -330 31
-153 118 -313 228 -423 147 -147 328 -229 545 -247 l87 -7 0 -174 c0 -172 0
-175 25 -199 l24 -25 911 0 911 0 24 25 c25 24 25 27 25 200 l0 175 160 0 160
0 0 80 0 80 -160 0 -160 0 0 175 c0 173 0 176 -25 200 l-24 25 -906 0 -907 0
-29 -29 -29 -29 0 -173 0 -172 -92 5 c-167 9 -301 71 -428 198 -84 85 -129
154 -168 262 -24 67 -27 86 -27 218 0 132 3 151 27 218 39 108 84 177 168 262
85 84 154 129 262 168 l73 27 373 3 372 3 0 80 0 79 -317 -1 c-175 -1 -348 -5
-385 -9z m997 -1535 c16 -15 25 -36 25 -55 0 -19 -9 -40 -25 -55 l-24 -25
-271 0 -271 0 -24 25 c-16 15 -25 36 -25 55 0 19 9 40 25 55 l24 25 271 0 271
0 24 -25z m400 0 c16 -15 25 -36 25 -55 0 -19 -9 -40 -25 -55 -21 -22 -33 -25
-95 -25 -62 0 -74 3 -95 25 -16 15 -25 36 -25 55 0 19 9 40 25 55 21 22 33 25
95 25 62 0 74 -3 95 -25z m400 0 c16 -15 25 -36 25 -55 0 -19 -9 -40 -25 -55
-21 -22 -33 -25 -95 -25 -62 0 -74 3 -95 25 -16 15 -25 36 -25 55 0 19 9 40
25 55 21 22 33 25 95 25 62 0 74 -3 95 -25z"/>
</g>
</svg>
